<svg id="SvgjsSvg1006" width="288" height="288" xmlns="http://www.w3.org/2000/svg" version="1.1" xmlns:xlink="http://www.w3.org/1999/xlink" xmlns:svgjs="http://svgjs.com/svgjs"><defs id="SvgjsDefs1007"></defs><g id="SvgjsG1008"><svg xmlns="http://www.w3.org/2000/svg" enable-background="new 0 0 491.123 491.123" viewBox="0 0 491.123 491.123" width="288" height="288"><path d="M470.223.561h-89.7c-9.4 0-16.7 6.3-19.8 14.6l-83.4 263.8h-178.3l-50-147h187.7c11.5 0 20.9-9.4 20.9-20.9s-9.4-20.9-20.9-20.9h-215.9c-18.5.9-23.2 18-19.8 26.1l63.6 189.7c3.1 8.3 11.5 13.6 19.8 13.6h207.5c9.4 0 17.7-5.2 19.8-13.6l83.4-263.8h75.1c11.5 0 20.9-9.4 20.9-20.9S481.623.561 470.223.561zM103.223 357.161c-36.5 0-66.7 30.2-66.7 66.7s30.2 66.7 66.7 66.7 66.7-30.2 66.7-66.7S139.723 357.161 103.223 357.161zM128.223 424.861c0 14.6-11.5 26.1-25 26.1-13.6 0-25-11.5-25-26.1s11.5-26.1 25-26.1C117.823 398.861 129.323 410.261 128.223 424.861zM265.823 357.161c-36.5 0-66.7 30.2-66.7 66.7s30.2 66.7 66.7 66.7c37.5 0 66.7-30.2 66.7-66.7C332.623 387.361 302.323 357.161 265.823 357.161zM290.923 424.861c0 14.6-11.5 26.1-25 26.1-13.5 0-25-11.5-25-26.1s11.5-26.1 25-26.1C280.423 398.861 291.923 410.261 290.923 424.861z" fill="#ffffff" class="color000 svgShape"></path></svg></g></svg>