<?xml version="1.0" encoding="UTF-8"?><svg id="a" xmlns="http://www.w3.org/2000/svg" viewBox="0 0 328.159 363.376"><defs><style>.b{fill:#21232f;}.c{fill:#cfbf9a;}.d{fill:#eeeeed;}.e{fill:#eff2f1;}.f{fill:#fc470e;}.g{fill:#fd801f;}.h{fill:#0074c2;}.i{fill:#525967;}</style></defs><path class="d" d="m44.847,197.241c-2.168-2.07-5.421-5.027-7.294-6.505q-3.45-2.859-2.267-13.799c.69-6.111,1.774-14.588,2.464-18.925q1.183-7.885-3.056-7.49-4.238.295-3.647-13.307c.591-13.503.591-13.897-2.957-27.499-2.07-7.589-3.844-15.77-4.14-18.136q-.493-4.337,4.041-3.844c4.928.591,17.84,6.407,26.711,12.123,6.702,4.238,15.376,12.222,19.319,17.643q2.858,3.844,2.858-.69,0-4.633,3.844-4.633c3.253,0,4.731.789,9.265,4.928,2.957,2.76,6.9,7.196,8.674,10.054,3.252,4.928,3.252,5.125,3.647,19.22.295,8.575,0,16.559-.69,20.304-1.873,9.856-1.676,9.561-6.407,9.561-3.943,0-4.337-.296-7.59-5.126-3.351-5.223-16.263-19.515-17.643-19.515-.394,0-.986,5.224-1.281,11.63-.591,12.912-3.253,22.374-8.871,31.837-2.858,4.928-3.45,5.322-7.097,5.618-3.351.197-4.534-.296-7.885-3.45Zm119.854-39.721c-2.366-.493-5.421-1.676-6.9-2.662-1.38-.887-4.534-1.971-6.899-2.267-6.506-.788-8.477-3.942-8.477-13.601q0-7.59,2.76-7.886c1.478-.197,4.928.789,7.688,2.07,3.943,2.07,5.52,2.366,7.984,1.577,9.56-2.661,20.6-13.01,26.415-24.641,1.971-3.844,3.548-5.815,4.731-5.815.986,0,5.52-.986,10.053-2.07,8.773-2.267,20.108-2.168,26.021.099,1.479.493,6.506.985,11.237.985s10.25.296,12.32.592q3.647.69,3.647,11.236c0,12.025-1.084,15.672-7.787,25.43-6.899,10.053-15.277,16.953-20.599,16.953q-3.352,0-2.859-4.14c.197-2.366,1.38-6.801,2.563-10.054,1.183-3.154,2.07-5.913,1.873-6.111-.198-.098-2.169,2.07-4.337,4.83-5.52,7.097-14.095,12.715-20.403,13.306q-4.928.493-4.435-4.829.394-5.421-3.352-1.282c-2.069,2.267-5.913,5.027-8.575,6.21-5.618,2.365-16.46,3.351-22.669,2.07Zm-35.582-39.327c-5.618-5.816-9.068-13.602-8.674-19.319.296-4.534.493-4.83,4.239-6.111,5.026-1.774,21.388-1.281,25.626.788,2.662,1.281,2.957,1.873,3.253,6.702.394,6.012-2.563,13.109-7.59,18.629-2.562,2.759-3.548,3.154-8.082,3.154-4.731,0-5.421-.296-8.772-3.844Zm58.153-28.387c0-4.632,2.957-8.969,8.772-12.912,8.575-5.815,22.768-6.604,31.146-1.676,5.323,3.056,7.393,6.308,7.393,11.335q0,3.943-4.83,3.943c-2.661,0-6.111-.493-7.688-1.084-4.928-1.873-12.222-1.281-19.121,1.478-3.746,1.479-8.378,2.563-11.04,2.563q-4.632,0-4.632-3.647Z"/><path class="c" d="m15.376,241.595c-3.745-16.658-4.041-20.6-4.041-47.114.099-29.076-.296-25.824,8.378-66.531,1.774-8.87,3.253-18.924,3.647-26.316.591-12.124,3.154-10.941,3.745-9.462,11.9,31.894,8.527,49.92,7.458,54.386-.144.603.558,1.061,1.04.671,1.069-.864,2.52-2.734,4.513-4.593,2.957-2.759,5.431-4.833,5.914-4.534.662.41-9.313,19.725-8.947,46.851.035,2.576-4.34,2.064-5.148,1.544-3.154-2.069-3.844-1.379-5.717,6.013-2.858,11.236-3.745,23.064-3.055,39.721q.69,15.968-2.76,15.968t-5.027-6.604Zm241.679-55.295c-3.154-2.562-8.378-6.209-11.63-8.082-4.337-2.563-5.914-4.041-5.914-5.618,0-2.366-9.265-9.167-15.278-11.138-2.957-.985,1.448-7.781,1.448-7.781,0,0,1.016.98,2.988-.104,6.801-3.647,17.643-16.756,21.684-26.218,2.563-5.815,2.858-20.107.493-20.107-.789,0-1.479-.493-1.479-1.084,0-.789,1.971-.986,6.407-.69q6.407.591,6.407-5.224,0-5.815,3.449-5.815c2.76,0,5.52,1.38,12.518,6.406,10.349,7.393,25.134,15.081,30.85,15.968,5.619.788,7.393,2.759,7.393,7.885s-2.07,7.392-10.054,11.335c-7.589,3.745-16.066,5.322-22.177,4.041q-5.026-.986-5.519,12.912c-.493,14.587-1.873,21.388-6.21,31.934-2.464,5.914-2.661,6.111-6.209,6.111-2.76,0-4.731-1.084-9.167-4.731Z"/><path class="g" d="m104.971,328.233c-17.249-7.491-31.935-18.333-40.608-30.161-4.041-5.52-4.238-6.012-4.238-12.616,0-9.167,2.464-13.602,7.491-13.602,3.056,0,3.746.591,6.9,5.52,5.815,9.067,18.431,24.246,25.725,30.85,3.647,3.45,10.842,8.871,15.869,12.222,8.378,5.52,9.068,6.21,9.068,9.265q0,3.253-4.633,3.253c-3.45,0-7.787-1.38-15.573-4.731Z"/><path class="g" d="m148.392,326.656c-23.064-6.111-29.569-8.674-39.13-14.982-7.097-4.731-10.546-7.787-13.799-12.222-2.267-3.253-6.111-8.477-8.477-11.532-6.012-7.885-11.335-19.319-16.854-36.272-2.359-17.286-4.731-14.489-6.308-11.039-.986,1.971-2.661,6.604-3.943,10.448-2.07,6.702-2.267,6.998-5.224,6.998-2.464,0-3.351-.69-5.027-3.647-3.45-6.209-8.181-20.895-8.181-25.331,0-2.365-.887-6.702-1.873-9.758-2.07-5.914-3.548-15.179-4.632-28.288-.435-6.088-1.719-6.768,1.455-6.491.687.06,4.278,3.444,8.796,7.379q8.082,6.998,12.419-.888c5.618-10.25,7.688-18.332,8.181-31.836.296-6.899.986-12.813,1.478-13.109,2.464-1.577,16.953,12.025,23.458,22.079,3.548,5.519,5.618,6.406,6.407,2.956,2.07-9.265,2.366-12.221,2.366-20.501,0-5.125-.394-11.236-.788-13.503-.789-4.041-.69-4.238,1.478-4.238,1.774,0,2.76,1.281,5.126,6.209,2.883,4.211,11.532,35.385,13.601,70.178,2.267,40.017,3.844,53.52,7.097,62.884,6.801,19.811,20.501,32.033,41.693,37.158,10.25,2.464,14.686,2.464,26.021.099,10.842-2.267,20.008-5.914,24.838-9.857,2.858-2.365,4.632-3.055,7.885-3.055q4.238,0,4.238,4.238c0,10.251-13.405,21.192-30.259,24.937-9.561,2.07-45.438,2.76-52.042.986Z"/><path class="g" d="m192.2,288.708c-12.419-3.844-26.612-20.797-26.612-32.033q0-3.745,4.435-3.351,4.435.296,2.267-1.38c-1.281-.986-2.563-1.774-2.957-1.774-.493,0-.788-1.479-.788-3.351,0-5.027,3.745-8.477,9.067-8.477,2.366,0,5.323.69,6.506,1.577,2.07,1.38,2.168,1.38,2.168-.985s.394-2.563,3.943-2.563c2.267,0,5.224.591,6.801,1.38,4.238,2.267,9.462,8.673,11.433,13.996,2.464,6.505,3.45,7.392,3.45,3.154,0-2.957.69-4.14,3.844-6.604,7.589-6.012,17.741-8.969,30.949-8.969,13.996,0,26.612,3.745,33.61,9.856,2.957,2.661,3.549,3.844,3.549,7.097q0,4.041-7.59,3.45c-4.238-.395-9.659-.986-12.123-1.282-4.337-.69-4.436-.69-2.661,1.282.985,1.084,1.675,3.548,1.675,5.716q0,3.746-7.096,2.859c-13.799-1.676-19.516-1.183-26.711,2.365-5.126,2.563-6.604,3.746-6.604,5.421,0,3.549-4.534,9.167-9.167,11.434-3.252,1.577-6.012,2.069-11.63,1.971-4.041,0-8.378-.394-9.758-.789Zm98.367-64.362c-.394-10.743-.887-13.306-4.041-22.473-1.971-5.716-3.647-12.123-3.647-14.291,0-4.436,2.563-20.699,3.45-22.177.295-.592,2.562-.986,4.928-.986,5.224,0,5.421.296,8.575,12.813,1.971,8.28,2.267,11.532,2.168,29.077-.098,14.193-.492,21.093-1.577,24.641-1.38,4.829-1.478,4.928-5.421,5.224q-4.041.295-4.435-11.828Zm-21.487-14.39c-4.041-3.253-14.588-9.955-20.206-12.715-5.815-2.957-21.585-7.195-26.415-7.195-2.365.098-10.349,2.267-18.431,5.027-17.15,5.913-20.107,6.702-24.838,6.8-3.352,0-3.746-.295-3.746-2.464,0-1.38-.394-2.464-.986-2.464-1.478,0-5.913,7.097-5.913,9.561,0,1.873-.493,2.267-3.352,2.267-5.125,0-9.462-5.421-9.462-11.631.099-2.562.69-5.716,1.479-7.096,1.872-3.351,1.774-3.943-.493-3.943-1.676,0-1.971-.69-1.971-4.731,0-9.363,6.899-15.277,21.782-18.628,11.532-2.662,41.003-2.366,52.436.492,10.547,2.662,14.686,4.633,14.292,6.9-.197,1.183,1.676,2.957,6.308,5.815,3.746,2.267,8.97,6.013,11.729,8.378,4.436,3.745,5.126,4.041,5.914,2.464,1.084-1.774,2.859-2.267,2.859-.788,0,.591,1.281,2.957,2.957,5.322,4.336,6.505,6.998,13.405,6.702,17.347-.296,3.253-.592,3.549-3.746,3.844-2.562.197-4.336-.394-6.899-2.562Zm-98.958-76.585c-.887-2.365-8.378-5.519-15.771-6.8-6.702-1.085-6.998-1.282-7.293-4.042-.296-1.971,1.084-5.815,4.238-12.024,5.618-11.04,6.111-14.884,2.168-16.855-2.267-1.084-3.351-1.084-6.406-.099-1.972.69-6.21,1.183-9.265.986-6.308-.296-12.419,1.281-14.292,3.647-1.084,1.281-1.282,1.084-1.282-1.676,0-2.563,1.282-4.83,5.323-9.856,2.957-3.647,7.195-9.659,9.364-13.405,3.745-6.308,3.942-6.998,2.562-8.871-3.942-5.125-7.392-13.996-7.392-18.432,0-3.351.394-4.731,1.38-4.731s1.183-.887.493-4.14c-.395-2.365-.789-8.772-.887-14.292q0-10.152,3.548-10.152c1.971,0,8.575,1.676,14.784,3.746q11.335,3.647,11.04,7.392c-.198,3.253.197,4.041,2.168,5.125,1.774.986,2.563,2.366,2.957,5.125q.493,3.943,4.435,2.168,3.844-1.774,1.183-2.957c-2.168-.986-2.661-1.873-2.661-4.83,0-3.647.098-3.647,4.534-4.337,6.406-.788,28.781-.788,29.175.197.197.394,4.632,2.858,9.955,5.52,7.688,3.844,11.532,6.702,19.22,13.996,10.645,10.054,14.883,17.052,15.77,26.415q.493,4.83-4.337,4.238c-2.661-.296-5.815-.887-6.998-1.183-2.168-.69-2.267-.591-2.267,6.801,0,6.505-.197,7.491-1.774,7.491-.986,0-2.267-1.281-3.055-3.056-1.676-3.745-8.576-8.279-13.898-9.166-8.279-1.281-19.614,3.647-24.444,10.645-2.661,3.943-2.661,4.337-.197,4.731q1.971.296,0,3.745c-2.661,4.632-4.337,8.476-6.21,13.996-1.478,4.534-1.478,4.731.395,5.716,2.759,1.577,2.365,2.859-2.957,9.364-5.618,6.998-12.419,12.025-13.306,9.856Zm89.397-79.048c-.295-.986-1.183-3.253-1.872-5.125-.789-1.774-1.38-5.421-1.38-8.082,0-4.632.098-4.731,3.745-5.717,1.971-.591,6.9-1.971,10.842-3.056,4.633-1.38,9.265-1.971,13.306-1.774q6.111.296,6.407,3.943c.296,3.351-.296,4.337-4.83,9.265-6.702,6.998-15.869,12.222-21.487,12.222-3.055,0-4.238-.493-4.731-1.676Z"/><path class="f" d="m217.334,304.38c-2.021.073-3.746-.28-7.195-.985-4.671-.955-4.59-1.551-8.346-2.236-6.803-1.241-9.89-.278-16.394-3.777-14.292-7.688-20.797-18.826-20.797-35.483q0-7.885,3.647-7.589c1.971.197,3.745.887,4.041,1.675.296.887-.197,1.084-1.774.592-1.873-.592-2.07-.395-1.479,1.675,2.957,9.265,12.518,21.093,20.502,25.134,7.195,3.647,15.08,4.14,20.895,1.281,4.83-2.365,9.364-7.885,9.364-11.532,0-1.675,1.38-2.858,6.505-5.322,7.392-3.647,17.15-4.731,27.5-3.056,3.252.592,6.111.789,6.406.493.296-.295-1.281-1.872-3.351-3.647-10.054-7.983-10.054-7.688.394-6.998,5.126.296,12.321,1.084,16.066,1.676,3.647.591,6.9.788,7.294.493.887-.986-2.464-4.436-8.082-8.28-2.662-1.872-7.097-4.928-9.758-6.801-2.563-1.774-6.9-4.139-9.561-5.026-2.661-.986-4.829-2.267-4.829-2.859s-1.38-3.844-3.056-7.195c-3.548-7.097-10.941-14.785-16.756-17.347-3.844-1.774-4.041-1.971-3.647-5.717q.395-3.942-6.209-3.351c-4.041.394-9.955,1.873-15.771,4.14-13.798,5.421-21.585,7.49-26.513,7.195-4.041-.296-4.436-.592-4.731-3.056-.197-1.478.394-5.125,1.281-8.082,1.38-4.731,1.873-5.421,4.041-5.421,2.07,0,2.366.296,1.873,2.07-.592,1.873-.394,1.971,3.154,1.281,2.07-.394,4.435-.985,5.224-1.38.788-.493,7.589-2.858,15.08-5.322,17.052-5.717,21.98-6.013,35.68-2.169,12.616,3.647,23.951,9.463,34.005,17.545,1.873,1.478,3.745,2.365,4.14,1.971,1.084-1.084-2.267-8.969-6.111-14.686-3.549-5.224-3.549-5.52-.592-12.222,4.238-9.659,5.717-17.446,6.21-32.625q.591-15.573,5.716-13.601c1.38.492,4.436,1.182,6.703,1.478,7.984.789,16.559,3.056,17.544,4.534,1.873,2.957,7.885,22.867,9.462,31.639,1.183,6.604,1.676,14.686,1.676,28.879.099,16.953-.296,21.192-2.168,30.062-6.309,28.781-18.925,52.634-38.736,73.332-23.853,24.937-53.52,40.313-87.131,45.438-12.123,1.774-39.031,1.774-50.859,0-4.632-.788-12.123-2.267-16.559-3.45-38.735-9.856-73.43-37.158-93.143-73.43-7.294-13.503-10.054-21.783-10.743-32.526q-.591-8.871.887-3.056c.788,3.253,1.577,6.111,1.873,6.309.197.197.098-6.407-.197-14.686-.69-17.249.69-31.541,3.942-43.073,2.464-8.575,2.957-8.772,9.265-4.83,2.655,1.674,3.867,2.497,3.867,2.497,0,0,2.642,58.008,15.452,66.498,1.112.737,1.835.76,1.835.76,1.793-.276,2.6-3.923,2.896-5.097,1.654-6.577,7.622-16.355,10.743-15.967,14.287,1.776,36.284,80.043,92.13,92.01,17.413,3.732,43.183,3.194,58.18-10.005,2.401-2.114,4.906-5.297,6.759-7.869.775-1.076-.29-2.526-1.541-2.089-1.698.593-3.81,1.1-6.202,1.186Zm-95.607,24.838c-.592-.493-4.731-3.351-9.364-6.406-4.632-3.056-11.433-8.28-15.08-11.631-7.294-6.604-19.91-21.783-25.725-30.85-1.873-3.056-3.745-5.52-3.943-5.52-1.479,0-4.534,7.195-4.534,10.645,0,10.645,21.487,29.766,44.847,39.82,9.856,4.238,16.164,6.012,13.799,3.942Zm175.739-101.324c.986-3.252,1.479-10.152,1.577-21.585.099-14.489-.197-18.037-2.168-26.12-2.661-10.645-3.647-12.813-5.717-12.813-1.872,0-2.759,2.661-4.238,12.813-1.084,7.787-1.084,8.871.789,13.799,5.322,14.489,6.8,21.882,6.308,30.95-.493,7.096-.296,8.673.788,8.279.69-.197,1.971-2.661,2.661-5.323Zm-126.246-102.548s3.969-3.874,8.167-10.702c1.157-1.882,3.828-9.503,4.928-13.109,1.787-5.858,5.717-11.039,7.491-11.039.985,0,4.632-1.183,8.181-2.661,7.589-3.055,16.263-3.548,25.035-1.38,3.055.788,5.914,1.084,6.406.69.986-.986.888-15.474-.197-17.544-1.084-2.366,1.479-2.366,8.773.197,3.154,1.084,5.913,1.774,6.111,1.676.492-.493-2.169-7.589-4.534-12.222-1.085-2.168-6.21-7.984-11.434-12.813-7.392-6.998-11.433-9.955-19.023-13.701-5.224-2.661-9.659-5.125-9.856-5.52-.197-.493-.986-.789-1.774-.789s-1.38-.394-1.38-.986c0-1.577,9.856-1.183,15.869.591,5.618,1.676,17.347,7.294,21.782,10.349,1.38,1.084,2.76,1.873,2.957,1.873s.197-1.774,0-3.943c-.394-3.548-.098-4.041,2.366-5.027,6.406-2.464,21.388-5.717,33.807-7.294,7.294-.887,17.052-2.76,21.684-4.14,4.633-1.478,10.35-2.76,12.715-3.056q4.14-.394,4.14,4.435c0,9.364-7.392,19.713-22.177,31.343-4.633,3.548-8.378,6.702-8.378,6.998,0,.69,17.052-10.546,19.811-13.01,1.774-1.774,3.549-2.365,6.703-2.365q4.238,0,3.844,5.421c-.789,9.068-7.393,21.093-16.658,30.161q-7.589,7.491-5.716,11.729c3.154,6.998,10.349,17.052,16.164,22.572,4.041,3.844,5.421,5.815,5.224,7.49-.197,1.578-.69,1.972-1.774,1.38-.789-.394-3.154-1.084-5.125-1.38-5.421-.887-20.108-8.476-30.26-15.77-4.829-3.548-9.166-6.406-9.56-6.406s-.395,3.154,0,6.998c.69,8.082,2.07,7.589-11.729,3.844-5.619-1.479-9.955-1.972-15.376-1.775-7.393.296-7.59.198-10.153-2.858-3.154-3.647-9.955-7.195-13.996-7.195-4.336,0-18.636,10.264-19.424,9.968-.888-.394-2.654,2.845-4.625,6.788-1.63,3.26-3.244,5.502-3.45,5.914-1.629,3.25-7.373,12.511-14.708,14.534-10.562,2.913-21.377-10.663-19.564-10.795,10.729-.782,18.714,2.527,18.714,2.527Zm100.226-75.656c6.505-3.647,16.854-13.7,15.868-15.376-.985-1.577-6.012-1.183-13.7.986-3.844,1.084-8.674,2.464-10.645,3.056-4.14,1.084-4.633,2.464-2.366,7.885.69,1.873,1.577,4.14,1.873,5.125.887,2.366,2.169,2.168,8.97-1.676Z"/><path class="h" d="m164.405,302.507c-11.63-3.745-22.768-12.616-27.401-21.782-5.914-11.631-7.096-19.22-10.842-68.009-2.267-29.274-3.745-38.638-7.885-52.437-4.337-13.996-4.337-13.897,4.238-16.46,3.844-1.084,8.477-2.07,10.152-2.07,2.662,0,3.352.493,4.633,3.746,2.464,6.209,7.195,11.63,12.912,15.08,4.731,2.858,5.421,3.746,5.519,6.407,0,1.675-1.379,5.716-2.956,9.068-4.436,8.772-4.83,14.291-1.479,21.782,3.253,7.196,9.265,13.011,16.953,16.559,6.9,3.154,12.222,2.76,23.951-2.07,7.59-3.154,9.265-3.548,17.939-3.548,7.096,0,10.546.493,13.799,1.873,9.068,3.844,16.559,12.616,16.559,19.318q0,4.238-5.224,4.83c-5.717.788-14.194,4.337-19.122,8.082-4.731,3.647-7.392,3.154-12.517-2.365-5.619-5.914-13.109-10.153-18.235-10.251-11.138-.099-20.994,10.645-23.852,26.119-2.169,11.828,2.464,26.218,11.926,36.469,3.745,4.041,4.928,6.21,4.928,8.477,0,2.957-.098,3.055-4.14,2.957-2.365,0-6.8-.789-9.856-1.775Z"/><path class="b" d="m143.904,362.829c-6.013-.69-22.966-4.239-30.062-6.407-15.672-4.534-37.258-15.967-51.648-27.204C28.682,303,7.787,267.517,1.478,226.022c-1.971-12.912-1.971-41.792,0-57.66,1.873-14.982,4.731-31.344,8.082-45.833,2.168-9.068,2.563-13.404,2.661-26.612.099-8.674-.296-17.446-.69-19.417q-.788-3.745,2.464-3.745c4.632,0,21.684,4.534,29.471,7.787,7.392,3.056,18.826,10.349,22.473,14.292,3.056,3.253,4.041,3.253,4.041.098,0-3.351,1.281-3.154,9.659,1.577,6.702,3.745,19.614,15.08,23.162,20.403q1.479,2.366,6.998.493c4.14-1.281,5.323-2.168,4.929-3.253-2.465-5.913-4.337-13.7-3.943-16.065.296-1.577,2.661-5.125,5.125-7.885,5.52-6.111,9.068-11.236,12.715-18.136q2.661-5.125.197-8.378c-4.829-6.407-7.688-14.883-8.871-26.021-.689-6.209.198-7.984,3.155-6.308q2.168,1.084,1.577-11.039c-.789-14.193.098-19.91,3.055-20.304,1.183-.197,6.9,1.676,12.912,4.14,6.012,2.464,15.277,6.111,20.6,7.984,9.462,3.45,9.955,3.548,16.361,2.563,17.052-2.76,36.371-.591,48.1,5.323q5.026,2.563,11.137.098c8.674-3.45,16.461-5.125,36.371-7.984,17.051-2.366,30.062-5.717,37.454-9.462,5.717-2.957,9.955-2.464,13.208,1.281q2.661,3.253,2.069,16.066c-.591,13.7-3.252,26.218-7.885,37.75q-2.562,6.111.395,6.111c1.675,0,3.154.591,3.449,1.38,1.084,2.76-5.815,13.7-12.813,20.501q-6.801,6.702-5.027,10.645c.986,2.168,4.238,6.209,7.294,8.969,3.055,2.76,7.195,6.505,9.166,8.28,7.294,6.603,7.097,16.263-.295,23.359q-3.943,3.746-.986,11.927c12.912,36.567,11.729,79.541-3.154,114.038-10.349,24.05-23.458,42.383-42.087,58.843-24.542,21.881-53.816,35.384-86.835,40.214-9.659,1.38-34.103,1.774-43.269.789Zm41.889-14.588c49.085-7.392,90.679-37.75,113.349-82.794,5.815-11.532,9.364-21.684,12.518-35.976,1.774-8.575,2.168-13.207,2.168-27.105,0-18.924-1.577-29.273-6.407-44.551-4.435-13.996-4.928-14.686-10.053-15.376-5.323-.788-9.561-2.267-9.561-3.548,0-.493,1.479-1.281,3.253-1.577,9.56-2.07,20.797-7.885,21.881-11.433.493-1.479-1.281-3.746-8.181-10.547-8.871-8.673-14.883-17.446-18.826-27.401q-1.872-5.027,3.45-9.167c7.097-5.52,12.715-12.715,16.756-21.29,4.14-8.871,5.027-12.32,3.055-12.32-.788,0-2.069.788-2.759,1.676-.789.887-6.308,4.83-12.222,8.674-12.222,7.984-17.348,13.208-21.881,22.374q-3.155,6.21-3.253.69c-.099-11.335,5.224-19.811,19.22-31.048,10.448-8.279,16.263-14.587,19.713-21.487,2.957-5.914,3.252-8.969.788-7.984-6.899,2.661-19.713,5.52-30.949,6.899-12.32,1.577-27.401,4.83-33.709,7.294-1.873.69-2.562,1.479-2.07,2.267.493.69,1.972,3.056,3.45,5.224,2.563,3.844,5.815,10.743,5.815,12.419,0,.493-4.139-2.267-9.068-6.111-11.137-8.378-26.415-16.164-35.778-18.136-6.67-1.415-19.697-1.724-27.21-1.086-2.576.219-3.426,3.583-1.251,4.981.025.016.049.032.074.047,5.323,3.548,6.407,5.421,3.056,5.421-3.154,0-11.237,3.943-16.855,8.279-2.562,1.971-5.125,3.548-5.716,3.548-1.873,0-.099-6.111,3.055-10.645,1.676-2.267,2.957-4.337,2.957-4.534s-1.577-1.281-3.45-2.464c-3.548-2.07-4.731-6.111-2.267-7.589.887-.591-19.515-8.181-22.078-8.279-2.168,0-.296,18.727,2.76,29.569q.788,2.464-1.873.69c-2.563-1.676-2.661-1.676-2.661,0,0,2.464,4.337,11.532,7.491,15.573,2.562,3.45,2.562,3.548.985,7.688-2.07,5.52-8.969,15.967-15.376,23.36-6.012,6.9-6.012,8.28,0,17.643,7.195,11.039,11.237,11.532,17.643,1.972,4.337-6.407,6.013-12.124,4.14-13.996-1.614-1.613-4.408-2.405-6.308-2.76-2.707-.505-5.353-.731-5.367-.765-.075-.185,2.718-2.403,3.001-2.586,3.351-2.168,11.039-3.055,14.785-1.577,1.478.591,3.154,2.168,3.844,3.548,1.478,3.253-.69,10.25-6.21,20.698-2.759,5.224-3.548,7.59-2.661,7.787.69.296,4.041.887,7.491,1.478,7.688,1.282,14.489,4.83,14.489,7.491,0,2.563-6.9,6.308-13.011,6.998-3.745.493-5.716.099-9.462-1.873-5.421-2.858-6.308-2.168-5.224,4.042.789,5.322,3.549,8.476,7.59,8.87,1.873.099,5.717,1.38,8.575,2.859,13.306,6.505,30.653.098,37.356-13.996.887-1.873,2.168-3.45,2.858-3.45,1.676,0,2.267,5.519,1.281,11.729-.087.524-.165,1.038-.233,1.531-.301,2.193,2.026,3.795,3.975,2.747,2.785-1.498,6.376-3.801,8.874-5.855,2.365-1.774,6.505-6.899,9.363-11.236,2.859-4.239,5.52-7.787,5.914-7.787,1.577,0,1.873,5.027.887,11.631-1.084,7.293-3.154,12.912-6.111,17.051q-1.873,2.563,2.464,4.239c5.52,2.168,15.595,9.034,15.376,11.039-.193,1.763-.985,1.774-6.604-.493-10.152-3.943-19.811-5.421-35.285-5.421-15.968.098-25.923,1.675-33.709,5.421-4.534,2.168-10.152,8.674-10.152,11.828,0,1.675.295,1.675,3.449.295,3.647-1.478,8.378-1.872,8.378-.591,0,.394-1.577,2.365-3.548,4.238-4.435,4.238-7.59,10.251-6.9,13.109.296,1.183,1.873,3.45,3.549,5.027,2.957,2.76,2.957,2.858,2.957.591,0-5.716,8.969-13.897,15.179-13.897q2.661,0-.493,4.534c-4.041,6.012-6.308,13.109-4.337,13.799,1.774.69,12.419-2.464,24.148-7.097,8.871-3.548,9.955-3.745,20.699-3.844,9.56,0,11.827.296,14.587,1.971,1.676.986,3.154,2.267,3.154,2.662s-2.168.788-4.83.788c-6.308,0-6.998,1.183-1.971,3.45,5.618,2.563,13.011,10.251,16.559,17.347,1.675,3.351,3.055,6.702,3.055,7.491,0,.69.592,1.281,1.38,1.281,3.351,0,15.376,7.196,19.713,11.828,2.464,2.661,4.534,5.224,4.534,5.815,0,.493-2.661-.394-5.815-1.971-17.15-8.575-39.327-7.294-52.338,3.056-3.252,2.562-3.745,3.548-4.337,8.476-.69,6.21-3.055,11.532-4.829,10.941-.69-.198-1.479-2.957-1.774-6.21-.986-10.152-6.703-19.91-13.898-23.655-3.942-2.07-4.83-1.774-3.745,1.182,1.182,3.155,1.281,9.266.098,9.266-.493,0-1.478-.986-2.365-2.267-.789-1.183-3.253-3.45-5.421-5.027-4.534-3.056-6.998-2.859-9.364.788-1.478,2.169-1.38,2.366.789,3.549,1.379.69,3.548,2.858,4.829,4.829,2.366,3.45,4.337,8.97,3.154,8.97-.295,0-3.154-1.38-6.406-3.056-1.53-.788-3.045-1.375-4.223-1.89-1.545-.675-2.416-.747-2.913-.477-.781.424-.639,1.692-.736,2.785-.298,3.327.149,34.637,43.691,40.982,9.654,1.462,11.706,2.256,3.212,6.306-14.292,6.998-34.497,9.265-49.381,5.717-21.684-5.224-35.286-17.249-42.185-37.257-3.253-9.364-4.83-22.867-7.097-62.884-1.577-26.514-3.844-42.481-7.983-55.689-2.957-9.265-8.575-21.191-13.208-27.894-2.957-4.336-12.419-13.503-13.898-13.503-.394,0-.986,2.661-1.281,5.815-.788,9.463-1.774,10.054-5.815,3.352-7.786-12.518-26.218-26.317-43.171-32.33q-3.647-1.281-4.238,11.631c-.394,8.772-1.676,17.742-3.647,27.302-8.575,40.017-8.279,37.849-8.279,64.067-.099,27.401,1.38,37.553,7.885,56.379,15.376,44.551,55.886,81.709,102.014,93.438,19.22,4.929,42.777,6.21,61.504,3.45Zm-15.179-52.337c-13.7-14.982-16.854-37.553-7.688-54.901,9.167-17.347,29.077-19.022,43.566-3.548,3.548,3.844,4.534,4.435,5.519,3.253,2.169-2.662,14.686-8.181,20.107-8.772,3.253-.493,5.421-1.183,5.421-1.972,0-1.774-5.125-8.575-8.969-11.729-9.068-7.589-20.008-8.575-33.413-2.957-11.729,4.928-22.078,5.618-29.865,2.07-7.688-3.548-13.7-9.364-16.953-16.559-2.366-5.421-2.661-6.998-2.267-13.602.394-6.012,1.084-8.969,3.548-13.897.973-1.892,1.798-3.606,2.328-4.784.392-.87.079-1.888-.735-2.386-1.103-.674-2.759-1.728-4.55-2.884-5.519-3.647-10.053-9.166-12.616-15.376-.788-2.168-1.774-3.055-2.858-2.759-13.405,3.745-12.814,3.055-9.955,12.32,3.942,12.715,5.618,23.557,7.885,52.338,3.745,48.789,4.928,56.378,10.842,68.009,4.632,9.166,15.77,18.037,27.401,21.782,8.476,2.662,8.673,2.366,3.252-3.646Z"/><path class="b" d="m193.679,107.252c-.395-.591.492-2.76,1.872-4.928,5.421-8.181,19.22-11.434,28.781-6.9,4.83,2.366,9.265,7.097,9.265,9.955,0,2.267-.296,2.267-6.407.493-8.575-2.661-14.193-2.858-22.177-.69-4.041.986-8.082,2.169-8.969,2.563-.986.295-1.971.098-2.365-.493Z"/><ellipse class="i" cx="156.857" cy="130.726" rx="3" ry="9" transform="translate(17.307 279.786) rotate(-86.695)"/><path class="e" d="m142.715,82.261c-1.091-1.202,2.946-7.02,9.591-9.403,6.676-2.394,12.377,2.324,12.755,2.633,5.324,4.359,6.035,7.902,4.6,8.894-1.064.736-1.973-1.017-7.946-3.125-1.629-.575-6.386-2.03-12-1-4.529.831-6.374,2.69-7,2Z"/></svg>